<?xml version="1.0" standalone="no"?>
<!DOCTYPE svg PUBLIC "-//W3C//DTD SVG 20010904//EN"
 "http://www.w3.org/TR/2001/REC-SVG-20010904/DTD/svg10.dtd">
<svg version="1.0" xmlns="http://www.w3.org/2000/svg"
 width="268.000000pt" height="81.000000pt" viewBox="0 0 268.000000 81.000000"
 preserveAspectRatio="xMidYMid meet">

<g transform="translate(0.000000,81.000000) scale(0.100000,-0.100000)"
fill="#000000" stroke="none">
<path d="M0 405 l0 -405 1340 0 1340 0 0 405 0 405 -1340 0 -1340 0 0 -405z
m487 294 c170 -64 254 -270 179 -436 -30 -65 -53 -92 -110 -134 -50 -37 -58
-36 -54 4 3 29 6 32 35 29 29 -2 35 3 53 39 17 32 19 44 9 55 -15 19 -3 84 16
84 24 0 20 86 -4 99 -24 13 -32 46 -16 68 15 20 11 36 -22 81 -21 27 -27 31
-44 21 -28 -15 -49 5 -46 44 2 29 -2 33 -40 46 -42 15 -43 15 -87 -17 -35 -25
-45 -29 -50 -17 -3 8 -12 15 -20 15 -18 0 -86 -68 -86 -86 0 -8 -4 -14 -9 -14
-5 0 -13 -10 -16 -22 -5 -15 -1 -26 14 -37 19 -14 20 -20 11 -48 -10 -26 -16
-31 -43 -29 -32 1 -32 1 -35 -54 -3 -74 14 -106 55 -103 39 3 52 -29 20 -52
-20 -14 -20 -14 8 -55 16 -22 43 -54 62 -70 42 -37 21 -40 -45 -6 -65 34 -120
91 -151 156 -32 69 -35 191 -7 255 74 171 251 248 423 184z m-90 -51 c-3 -8
-6 -5 -6 6 -1 11 2 17 5 13 3 -3 4 -12 1 -19z m703 -18 l0 -29 -82 -3 -83 -3
-3 -147 -3 -148 51 0 c53 0 56 -3 40 -44 -8 -22 -16 -26 -50 -26 l-40 0 0 -75
0 -75 -75 0 -75 0 0 290 0 289 153 3 c83 2 155 2 160 0 4 -2 7 -16 7 -32z
m1470 -261 l0 -289 -80 0 -80 0 0 288 c0 159 2 291 4 293 2 2 38 3 80 1 l76
-4 0 -289z m-1100 261 l0 -29 -82 -3 -83 -3 0 -145 0 -145 48 -3 c48 -3 52 -8
41 -49 -5 -17 -15 -23 -48 -25 -40 -3 -41 -4 -44 -41 l-3 -37 70 -1 c39 -1 77
-2 84 -3 6 0 13 -16 15 -33 l3 -33 -160 0 -161 0 0 290 0 290 160 0 160 0 0
-30z m235 -87 c20 -65 40 -129 45 -143 5 -14 22 -65 37 -115 l28 -90 3 233 2
232 30 0 30 0 0 -290 0 -290 -93 0 -93 0 -48 158 c-26 86 -52 161 -57 167 -5
5 -9 -59 -9 -158 l0 -167 -25 0 -25 0 0 163 c0 89 -2 219 -4 290 l-3 127 73 0
73 0 36 -117z m605 87 l0 -30 -89 0 c-85 0 -91 -1 -110 -26 -26 -33 -27 -75
-3 -103 9 -12 54 -37 100 -56 98 -40 111 -49 129 -92 31 -74 3 -168 -64 -213
-34 -23 -47 -25 -175 -28 l-138 -4 0 36 0 36 104 0 c97 0 106 2 120 22 23 33
20 81 -7 106 -12 12 -53 33 -90 47 -88 33 -112 49 -131 90 -36 76 -3 181 70
222 34 20 53 23 162 23 l122 0 0 -30z m-1803 -112 c18 -18 33 -35 33 -39 0 -4
-15 8 -34 27 -37 37 -86 46 -121 20 -17 -12 -14 -13 23 -13 23 0 49 -6 57 -13
44 -37 59 -133 30 -190 -18 -35 -61 -70 -87 -70 -11 0 -16 -4 -13 -10 3 -5 21
-10 38 -10 60 1 106 59 117 148 l7 57 2 -47 c2 -98 -50 -168 -126 -168 -31 0
-46 7 -70 32 -40 41 -53 76 -53 139 0 140 113 219 197 137z m-247 15 c0 -5 -5
-15 -10 -23 -8 -12 -10 -11 -10 8 0 12 5 22 10 22 6 0 10 -3 10 -7z m8 -324
c-3 -8 -7 -3 -11 10 -4 17 -3 21 5 13 5 -5 8 -16 6 -23z m152 -109 c0 -16 -2
-30 -4 -30 -2 0 -6 13 -8 30 -3 17 -1 30 4 30 4 0 8 -13 8 -30z m-50 -5 l23
-25 -36 0 c-37 0 -42 5 -31 34 8 22 17 20 44 -9z"/>
</g>
</svg>
